<?xml version="1.0" encoding="utf-8"?>
<!-- Generator: Adobe Illustrator 24.1.2, SVG Export Plug-In . SVG Version: 6.00 Build 0)  -->
<svg version="1.1" id="Layer_1" xmlns="http://www.w3.org/2000/svg" xmlns:xlink="http://www.w3.org/1999/xlink" x="0px" y="0px"
	 viewBox="0 0 266 117" style="enable-background:new 0 0 266 117;" xml:space="preserve">
<style type="text/css">
	.st0{fill-rule:evenodd;clip-rule:evenodd;}
</style>
<path class="st0" d="M82.8,29.1l-1.3-1c0.2-0.3,19.1-25.7,19.1-25.7l1.4,1C101.8,3.6,82.9,29,82.8,29.1z"/>
<path class="st0" d="M80.1,27.2l-1.4-0.9l5.9-9.6l1.4,0.9L80.1,27.2z"/>
<path class="st0" d="M77.3,25.5l-1.5-0.8l6.4-12.9l1.5,0.8L77.3,25.5z"/>
<path class="st0" d="M74.3,24.1l-1.6-0.6l5.9-15.2l1.6,0.6L74.3,24.1z"/>
<path class="st0" d="M71.2,22.9l-1.6-0.5l6.3-21.8l1.6,0.5L71.2,22.9z"/>
<path class="st0" d="M68.1,22.1l-1.7-0.3l3-15.4l1.7,0.3L68.1,22.1z"/>
<path class="st0" d="M64.8,21.5l-1.7-0.2L64.6,7l1.7,0.2L64.8,21.5z"/>
<path class="st0" d="M61.5,21.2l-1.7,0L60,10.5l1.7,0L61.5,21.2z"/>
<path class="st0" d="M56.6,21.4L55.3,5.3L57,5.2l1.2,16.1L56.6,21.4z"/>
<path class="st0" d="M53.3,21.9L51.2,9.6l1.7-0.3L55,21.6L53.3,21.9z"/>
<path class="st0" d="M50.1,22.6l-2.8-10.7l1.6-0.4l2.8,10.7L50.1,22.6z"/>
<path class="st0" d="M47,23.7L41.9,9.5l1.6-0.6l5.1,14.2L47,23.7z"/>
<path class="st0" d="M44,25l-3.1-6.7l1.5-0.7l3.1,6.7L44,25z"/>
<path class="st0" d="M41.1,26.6l-4.7-8.2l1.5-0.9l4.7,8.2L41.1,26.6z"/>
<path class="st0" d="M38.4,28.5l-1.7-2.4l1.4-1l1.7,2.4L38.4,28.5z"/>
<path class="st0" d="M35.8,30.6l-9.4-11.1l1.3-1.1l9.4,11.1L35.8,30.6z"/>
<path class="st0" d="M33.4,32.9L25,24.5l1.2-1.2l8.4,8.3L33.4,32.9z"/>
<path class="st0" d="M31.3,35.4L18.5,24.8l1.1-1.3l12.8,10.6L31.3,35.4z"/>
<path class="st0" d="M29.4,38.1L17.5,30l1-1.4l11.8,8.1L29.4,38.1z"/>
<path class="st0" d="M27.7,40.9L5.4,28.5L6.2,27l22.3,12.5L27.7,40.9z"/>
<path class="st0" d="M26.3,43.9l-8.2-3.7l0.7-1.6l8.2,3.7L26.3,43.9z"/>
<path class="st0" d="M25.2,47L3.9,39.8l0.5-1.6l21.3,7.3L25.2,47z"/>
<path class="st0" d="M0,44.3l24.4,5.9l0.4-1.7L0.4,42.6L0,44.3z"/>
<path class="st0" d="M23.8,53.5L13.9,52l0.3-1.7l9.9,1.5L23.8,53.5z"/>
<path class="st0" d="M23.5,56.8L5.4,55.7L5.5,54l18.2,1.1L23.5,56.8z"/>
<path class="st0" d="M9.7,60.5l-0.1-1.7l13.9-0.4l0.1,1.7L9.7,60.5z"/>
<path class="st0" d="M6.3,65.6l-0.2-1.7l17.6-2.2l0.2,1.7L6.3,65.6z"/>
<path class="st0" d="M14,68.9l-0.4-1.7L24.2,65l0.4,1.7L14,68.9z"/>
<path class="st0" d="M21.5,71.1L21,69.4l3.9-1.2l0.5,1.6L21.5,71.1z"/>
<path class="st0" d="M14.7,77.9L14,76.3L26,71.3l0.6,1.6L14.7,77.9z"/>
<path class="st0" d="M14.8,82.8L14,81.3l13.2-6.9l0.8,1.5L14.8,82.8z"/>
<path class="st0" d="M14.9,88.3L14,86.9l14.9-9.6l0.9,1.4L14.9,88.3z"/>
<path class="st0" d="M19,91.3l-1-1.4L30.7,80l1,1.4L19,91.3z"/>
<path class="st0" d="M22.8,94.3L21.6,93l11.1-10.4l1.2,1.3L22.8,94.3z"/>
<path class="st0" d="M25.8,97.8l-1.3-1.1L35.1,85l1.3,1.1L25.8,97.8z"/>
<path class="st0" d="M30.4,99.6l-1.4-1l8.5-11.5l1.4,1L30.4,99.6z"/>
<path class="st0" d="M37.9,96.1l-1.4-0.9l3.8-6.2l1.4,0.9L37.9,96.1z"/>
<path class="st0" d="M36.1,108.6l-1.5-0.8l8.5-17.1l1.5,0.8L36.1,108.6z"/>
<path class="st0" d="M42.5,106l-1.6-0.6L46,92.1l1.6,0.6L42.5,106z"/>
<path class="st0" d="M48.3,102.4l-1.6-0.5l2.5-8.7l1.6,0.5L48.3,102.4z"/>
<path class="st0" d="M51.5,107.2l-1.7-0.3l2.5-12.8l1.7,0.3L51.5,107.2z"/>
<path class="st0" d="M55.9,108l-1.7-0.2l1.4-13.2l1.7,0.2L55.9,108z"/>
<path class="st0" d="M60.4,104l-1.7,0l0.1-9.1l1.7,0L60.4,104z"/>
<path class="st0" d="M63.2,109.1l-1.1-14.2l1.7-0.1l1.1,14.2L63.2,109.1z"/>
<path class="st0" d="M68.3,111.9l-2.9-17.3l1.7-0.3l2.9,17.3L68.3,111.9z"/>
<path class="st0" d="M74.6,117l-6-23l1.6-0.4l6,23L74.6,117z"/>
<path class="st0" d="M75.4,103l-3.6-9.9l1.6-0.6l3.6,9.9L75.4,103z"/>
<path class="st0" d="M80.9,104.9l-6-13l1.5-0.7l6,13L80.9,104.9z"/>
<path class="st0" d="M91.9,114.8l-14-24.3l1.5-0.9l14,24.3L91.9,114.8z"/>
<path class="st0" d="M89.7,101.6l-9.1-12.9l1.4-1l9.1,12.9L89.7,101.6z"/>
<path class="st0" d="M84.2,87.8l-0.9-1.1l1.3-1.1l0.9,1.1L84.2,87.8z"/>
<path class="st0" d="M96.4,95.1L85.7,84.6l1.2-1.2l10.6,10.5L96.4,95.1z"/>
<path class="st0" d="M97,89.5l-9-7.4l1.1-1.3l9,7.4L97,89.5z"/>
<path class="st0" d="M101.6,87.5L90,79.5l1-1.4l11.6,7.9L101.6,87.5z"/>
<path class="st0" d="M101,81.9l-9.2-5.1l0.8-1.5l9.2,5.1L101,81.9z"/>
<path class="st0" d="M111.4,81.9l-18.1-8.1l0.7-1.6l18.1,8.1L111.4,81.9z"/>
<path class="st0" d="M99,72.3l-4.4-1.5l0.5-1.6l4.4,1.5L99,72.3z"/>
<path class="st0" d="M112.8,71.8c0,0-16.7-4.1-17.2-4.2L96,66c0.1,0,17.2,4.2,17.2,4.2L112.8,71.8z"/>
<path class="st0" d="M110.2,66.5l-13.9-2.1l0.3-1.7l13.9,2.1L110.2,66.5z"/>
<path class="st0" d="M108.7,61.8l-12-0.7l0.1-1.7l12,0.7L108.7,61.8z"/>
<path class="st0" d="M96.9,57.8l-0.1-1.7l8.9-0.3l0.1,1.7L96.9,57.8z"/>
<path class="st0" d="M96.7,54.5l-0.2-1.7l7.7-0.9l0.2,1.7L96.7,54.5z"/>
<path class="st0" d="M96.2,51.2l-0.4-1.7l11-2.4l0.4,1.7L96.2,51.2z"/>
<path class="st0" d="M95.5,48L95,46.4l5.1-1.6l0.5,1.6L95.5,48z"/>
<path class="st0" d="M94.4,44.9l-0.6-1.6l7.1-2.9l0.6,1.6L94.4,44.9z"/>
<path class="st0" d="M93.1,41.8l-0.8-1.5l15.5-8.1l0.8,1.5L93.1,41.8z"/>
<path class="st0" d="M91.5,38.9l-0.9-1.4l18.8-12.1l0.9,1.4L91.5,38.9z"/>
<path class="st0" d="M89.7,36.2l-1-1.4l4-3.1l1,1.4L89.7,36.2z"/>
<path class="st0" d="M87.6,33.6l-1.1-1.3c0.3-0.2,2.8-2.6,2.8-2.6l1.2,1.3C90.5,31,87.7,33.6,87.6,33.6z"/>
<path class="st0" d="M85.3,31.2l-1.3-1.1l19.2-21.6l1.3,1.1L85.3,31.2z"/>
<path class="st0" d="M54.4,63.3c-0.1,0.4-0.3,0.6-0.5,0.9c-0.3,0.3-0.6,0.5-1,0.7c-0.4,0.2-1,0.3-1.7,0.3h-3.7v-5.6h3.6
	c0.7,0,1.2,0.1,1.6,0.2c0.4,0.1,0.8,0.3,1,0.5s0.4,0.5,0.6,0.8c0.1,0.4,0.2,0.7,0.2,1.1C54.6,62.5,54.5,62.9,54.4,63.3z M47.5,50.5
	h3.1c0.6,0,1.1,0.1,1.5,0.1c0.4,0.1,0.8,0.2,1.1,0.5c0.3,0.2,0.5,0.5,0.6,0.9c0.1,0.4,0.2,0.8,0.2,1.4s-0.1,1-0.3,1.4
	c-0.2,0.4-0.4,0.6-0.7,0.8c-0.3,0.2-0.7,0.3-1.2,0.4c-0.4,0.1-1,0.1-1.5,0.2h-2.7V50.5z M58.6,59.1c-0.7-0.8-1.8-1.4-3.3-1.7
	c0.7-0.3,1.3-0.5,1.7-0.9c0.5-0.4,0.9-0.7,1.2-1.1c0.3-0.4,0.5-0.8,0.7-1.3c0.2-0.5,0.2-0.9,0.2-1.5c0-0.9-0.2-1.7-0.5-2.5
	c-0.3-0.8-0.8-1.4-1.5-1.9c-0.7-0.5-1.6-0.9-2.7-1.2s-2.4-0.4-4-0.4h-8.3v22.6h9c1.3,0,2.5-0.2,3.6-0.5c1-0.4,1.9-0.8,2.6-1.5
	c0.7-0.6,1.3-1.3,1.6-2.2c0.4-0.8,0.6-1.7,0.5-2.7C59.7,61,59.3,60,58.6,59.1z"/>
<path class="st0" d="M77,50.5v-4H62.5v22.6H77v-4h-9.2v-5.4h7.1v-3.9h-7.1v-5.3H77z"/>
<path class="st0" d="M132.9,36.1c-2.2,0-3.5,1.5-3.5,3.9c0,2.5,1.3,3.9,3.5,3.9s3.4-1.5,3.4-3.9C136.4,37.6,135.1,36.1,132.9,36.1z
	 M132.9,46.3c-3.8,0-6.4-2.7-6.4-6.3c0-3.6,2.6-6.3,6.4-6.3c3.8,0,6.4,2.8,6.4,6.3C139.3,43.6,136.8,46.3,132.9,46.3z"/>
<path class="st0" d="M147.2,39.9h1.5c1.5,0,2.1-0.8,2.1-2c0-1.1-0.7-1.9-2.1-1.9h-1.5V39.9z M147.2,42.1v4.1h-2.9V33.8h4.3
	c3.4,0,4.9,1.8,4.9,4c0,2.5-1.5,4.2-4.9,4.2H147.2z"/>
<path class="st0" d="M166.7,33.8V36h-5v2.9h3.8V41h-3.8V44h5v2.2h-7.9V33.8H166.7z"/>
<path class="st0" d="M175.1,34.3l5.8,7.4c0-0.5-0.1-0.9-0.1-1.3v-6.5h2.5v12.3h-1.5c-0.4,0-0.7-0.1-1-0.5l-5.8-7.4
	c0,0.4,0.1,0.8,0.1,1.2v6.6h-2.5V33.8h1.5C174.7,33.8,174.8,33.9,175.1,34.3z"/>
<path class="st0" d="M130,61.7h0.5c0.4,0,0.7-0.1,0.9-0.4l2.8-4c0.3-0.4,0.7-0.6,1.2-0.6h2.5l-3.6,5c-0.3,0.4-0.5,0.6-0.8,0.8
	c0.4,0.2,0.8,0.4,1.1,0.9l3.7,5.7h-2.5c-0.7,0-0.9-0.2-1.1-0.5l-2.8-4.3c-0.2-0.3-0.5-0.4-1-0.4H130v5.3h-2.8V56.7h2.9L130,61.7
	L130,61.7z"/>
<path class="st0" d="M146,57.2l5.8,7.4c0-0.5-0.1-0.9-0.1-1.3v-6.5h2.5V69h-1.5c-0.4,0-0.7-0.1-1-0.5l-5.8-7.4
	c0,0.4,0.1,0.8,0.1,1.2V69h-2.5V56.7h1.5C145.6,56.7,145.7,56.8,146,57.2z"/>
<path class="st0" d="M166.1,59c-2.2,0-3.5,1.5-3.5,3.9c0,2.5,1.3,3.9,3.5,3.9s3.4-1.5,3.4-3.9C169.5,60.4,168.3,59,166.1,59z
	 M166.1,69.2c-3.8,0-6.4-2.7-6.4-6.3s2.6-6.3,6.4-6.3c3.8,0,6.4,2.8,6.4,6.3C172.5,66.4,169.9,69.2,166.1,69.2z"/>
<path class="st0" d="M175.6,56.7h2.4c0.5,0,0.8,0.3,0.9,0.6l1.7,6.4c0.1,0.4,0.2,0.9,0.3,1.4c0.1-0.5,0.2-1,0.4-1.4l2-6.4
	c0.1-0.3,0.5-0.6,0.9-0.6h0.8c0.5,0,0.8,0.2,1,0.6l2,6.4c0.1,0.4,0.3,0.8,0.4,1.3c0.1-0.5,0.2-1,0.3-1.3l1.7-6.4
	c0.1-0.3,0.5-0.6,0.9-0.6h2.2l-3.8,12.3h-2.6l-2.3-7.7c-0.1-0.2-0.2-0.5-0.2-0.8c-0.1,0.3-0.2,0.6-0.2,0.8l-2.3,7.7h-2.6L175.6,56.7
	z"/>
<path class="st0" d="M201.4,66.8h4.6V69h-7.4V56.7h2.9V66.8z"/>
<path class="st0" d="M219.9,56.7v2.2h-5v2.9h3.8v2.1h-3.8v2.9h5v2.2H212V56.7H219.9z"/>
<path class="st0" d="M230.6,58.9h-1.9v7.9h1.9c2.2,0,3.4-1.5,3.4-4C234.1,60.4,232.8,58.9,230.6,58.9z M230.6,69.1h-4.8V56.7h4.8
	c3.8,0,6.4,2.6,6.4,6.2C237,66.4,234.5,69.1,230.6,69.1z"/>
<path class="st0" d="M249.8,66.6v-1.9h-1.2c-0.4,0-0.6-0.2-0.6-0.5v-1.6h4.4v5.2c-1.2,0.9-2.7,1.3-4.7,1.3c-3.6,0-6.3-2.7-6.3-6.3
	c0-3.7,2.5-6.3,6.5-6.3c2.1,0,3.6,0.7,4.6,1.7l-0.8,1.3c-0.2,0.2-0.4,0.4-0.6,0.4c-0.2,0-0.3-0.1-0.5-0.2c-0.9-0.5-1.5-0.8-2.7-0.8
	c-2.1,0-3.5,1.6-3.5,3.9c0,2.6,1.5,4.1,3.6,4.1C248.6,67,249.2,66.9,249.8,66.6z"/>
<path class="st0" d="M266,56.7v2.2h-5v2.9h3.8v2.1H261v2.9h5v2.2h-7.9V56.7H266z"/>
<path class="st0" d="M129.3,86.4v4.2h2.6c0.5,0,0.9,0,1.2-0.2c0.3-0.1,0.6-0.3,0.8-0.5c0.2-0.2,0.4-0.4,0.5-0.7
	c0.1-0.3,0.2-0.6,0.2-0.9c0-0.6-0.2-1.1-0.7-1.5c-0.4-0.4-1.1-0.5-2-0.5H129.3z M129.3,85.2h2.1c0.5,0,0.9,0,1.2-0.2
	c0.3-0.1,0.6-0.3,0.8-0.4c0.2-0.2,0.4-0.4,0.5-0.7c0.1-0.3,0.2-0.5,0.2-0.8c0-0.7-0.2-1.2-0.6-1.6c-0.4-0.3-1.1-0.5-2-0.5h-2.2V85.2
	z M127.7,91.9V79.8h3.8c0.7,0,1.4,0.1,1.9,0.2c0.5,0.2,1,0.4,1.3,0.6c0.3,0.3,0.6,0.6,0.8,1c0.2,0.4,0.2,0.8,0.2,1.3
	c0,0.3,0,0.6-0.1,0.9c-0.1,0.3-0.2,0.5-0.4,0.8c-0.2,0.2-0.4,0.5-0.7,0.6c-0.3,0.2-0.6,0.3-1,0.5c0.9,0.2,1.5,0.5,2,1
	c0.5,0.5,0.7,1.1,0.7,1.8c0,0.5-0.1,1-0.3,1.4c-0.2,0.4-0.5,0.8-0.8,1.1c-0.4,0.3-0.8,0.5-1.3,0.7c-0.5,0.2-1.1,0.3-1.8,0.3
	L127.7,91.9L127.7,91.9z"/>
<path class="st0" d="M151,79.8v1.3h-5.8v4h4.7v1.3h-4.7v4.1h5.8V92h-7.4V79.8L151,79.8L151,79.8z"/>
<path class="st0" d="M160.1,90.6h5.2v1.4h-6.9V79.8h1.6V90.6z"/>
<path class="st0" d="M177.5,90.7c0.3,0,0.6,0,0.9,0c0.3,0,0.5-0.1,0.8-0.1c0.2-0.1,0.5-0.1,0.7-0.2c0.2-0.1,0.4-0.2,0.6-0.3v-2.7
	h-1.9c-0.1,0-0.2,0-0.2-0.1c-0.1-0.1-0.1-0.1-0.1-0.2v-0.9h3.7v4.7c-0.3,0.2-0.6,0.4-0.9,0.6c-0.3,0.2-0.7,0.3-1,0.4
	c-0.4,0.1-0.8,0.2-1.2,0.3c-0.4,0-0.9,0.1-1.4,0.1c-0.9,0-1.7-0.2-2.4-0.5c-0.7-0.3-1.4-0.7-1.9-1.3c-0.5-0.5-0.9-1.2-1.2-2
	c-0.3-0.8-0.5-1.6-0.5-2.5c0-0.9,0.1-1.8,0.4-2.5c0.3-0.8,0.7-1.4,1.2-2c0.5-0.5,1.2-1,1.9-1.3c0.8-0.3,1.6-0.5,2.6-0.5
	c0.5,0,0.9,0,1.3,0.1c0.4,0.1,0.8,0.2,1.1,0.3c0.4,0.1,0.7,0.3,1,0.5c0.3,0.2,0.6,0.4,0.8,0.6l-0.5,0.8c-0.1,0.2-0.2,0.2-0.4,0.2
	c-0.1,0-0.2,0-0.3-0.1c-0.1-0.1-0.3-0.2-0.5-0.3c-0.2-0.1-0.4-0.2-0.6-0.3c-0.2-0.1-0.5-0.2-0.9-0.3c-0.3-0.1-0.7-0.1-1.2-0.1
	c-0.7,0-1.3,0.1-1.8,0.3c-0.5,0.2-1,0.5-1.4,1c-0.4,0.4-0.7,0.9-0.9,1.5c-0.2,0.6-0.3,1.3-0.3,2c0,0.8,0.1,1.5,0.3,2
	c0.2,0.6,0.5,1.1,0.9,1.5c0.4,0.4,0.9,0.7,1.4,1C176.3,90.6,176.9,90.7,177.5,90.7z"/>
<path class="st0" d="M189.8,79.8h1.6v12.1h-1.6V79.8z"/>
<path class="st0" d="M204.5,90.6c0.5,0,1-0.1,1.3-0.3c0.4-0.2,0.7-0.4,1-0.7c0.3-0.3,0.5-0.7,0.6-1.1c0.2-0.4,0.2-0.9,0.2-1.4v-7.4
	h1.6v7.4c0,0.7-0.1,1.3-0.3,2c-0.2,0.6-0.5,1.1-1,1.5c-0.4,0.4-0.9,0.8-1.5,1c-0.6,0.3-1.3,0.4-2,0.4c-0.7,0-1.4-0.1-2-0.4
	c-0.6-0.3-1.1-0.6-1.5-1c-0.4-0.4-0.7-1-0.9-1.5c-0.2-0.6-0.3-1.3-0.3-2v-7.4h1.6v7.4c0,0.5,0.1,1,0.2,1.4c0.1,0.4,0.3,0.8,0.6,1.1
	c0.3,0.3,0.6,0.5,1,0.7C203.5,90.5,203.9,90.6,204.5,90.6z"/>
<path class="st0" d="M223.3,88c0.1,0.2,0.1,0.3,0.2,0.5c0-0.2,0.1-0.3,0.2-0.5c0.1-0.1,0.1-0.3,0.2-0.4l4.1-7.5
	c0.1-0.1,0.2-0.2,0.2-0.2c0.1,0,0.2,0,0.3,0h1.2v12.1h-1.4V83v-0.4c0-0.1,0-0.3,0-0.4l-4.1,7.6c-0.1,0.3-0.3,0.4-0.6,0.4h-0.2
	c-0.2,0-0.5-0.1-0.6-0.4l-4.2-7.6c0,0.1,0,0.3,0,0.4c0,0.1,0,0.3,0,0.4v8.9h-1.4V79.8h1.2c0.1,0,0.2,0,0.3,0c0.1,0,0.2,0.1,0.2,0.2
	l4.2,7.5C223.1,87.7,223.2,87.8,223.3,88z"/>
</svg>
