<svg width="33" height="33" viewBox="0 0 33 33" fill="none" xmlns="http://www.w3.org/2000/svg">
<path fill-rule="evenodd" clip-rule="evenodd" d="M33 16.5C33 25.6127 25.6127 33 16.5 33C7.3873 33 0 25.6127 0 16.5C0 7.3873 7.3873 0 16.5 0C25.6127 0 33 7.3873 33 16.5ZM13.8419 6.53378C12.7402 6.5346 11.8485 7.42691 11.8493 8.52645C11.8485 9.62599 12.741 10.5183 13.8427 10.5191H15.8361V8.52726C15.8369 7.42772 14.9445 6.53541 13.8419 6.53378ZM13.8419 11.8486H8.52782C7.42608 11.8494 6.53361 12.7418 6.53443 13.8413C6.5328 14.9408 7.42526 15.8331 8.52701 15.8348H13.8419C14.9437 15.834 15.8361 14.9417 15.8353 13.8421C15.8361 12.7418 14.9437 11.8494 13.8419 11.8486ZM24.4717 11.8486C25.5734 11.8494 26.4659 12.7418 26.4651 13.8413C26.4659 14.9417 25.5734 15.834 24.4717 15.8348H22.4783V13.8413C22.4775 12.7418 23.3699 11.8494 24.4717 11.8486ZM21.1502 8.52645V13.8413C21.151 14.9417 20.2585 15.834 19.1568 15.8348C18.055 15.8331 17.1626 14.9408 17.1642 13.8413V8.52645C17.1634 7.42691 18.0558 6.5346 19.1576 6.53378C20.2593 6.53541 21.151 7.42772 21.1502 8.52645ZM19.1568 26.4628C20.2586 26.4619 21.1511 25.5696 21.1502 24.4701C21.1511 23.3706 20.2586 22.4782 19.1568 22.4774H17.1635V24.4701C17.1626 25.5688 18.0551 26.4611 19.1568 26.4628ZM19.1568 21.1471H24.4718C25.5735 21.1463 26.466 20.254 26.4652 19.1544C26.4668 18.0549 25.5743 17.1626 24.4726 17.1609H19.1577C18.0559 17.1618 17.1635 18.0541 17.1643 19.1536C17.1635 20.254 18.0551 21.1463 19.1568 21.1471ZM8.52782 21.1501C7.42608 21.1493 6.53361 20.257 6.53442 19.1574C6.53361 18.0579 7.42608 17.1656 8.52782 17.1648H10.5212V19.1574C10.522 20.257 9.62956 21.1493 8.52782 21.1501ZM11.8493 24.4723V19.1574C11.8485 18.0579 12.7402 17.1656 13.8427 17.1656C14.9445 17.1672 15.8369 18.0595 15.8353 19.1591V24.4731C15.8361 25.5726 14.9437 26.4649 13.8419 26.4658C12.7402 26.4641 11.8477 25.5718 11.8493 24.4723Z" fill="white"/>
</svg>
