<svg height="79" viewBox="0 0 300 79" width="300" xmlns="http://www.w3.org/2000/svg"><g fill="#002a3a" fill-rule="evenodd" transform="translate(4.33213 .541516)"><path d="m67.526947 31.3386927c-3.9934221 0-7.2274113 3.2368335-7.2274113 7.2274113 0 3.9905777 3.2339892 7.2274113 7.2274113 7.2274113 3.9905778 0 7.2274114-3.2368336 7.2274114-7.2274113 0-3.9905778-3.2368336-7.2274113-7.2274114-7.2274113"/><path d="m51.2944258 32.1379459c-3.5497085 0-6.4281581 2.8756052-6.4281581 6.4253138 0 3.5497085 2.8784496 6.4253137 6.4281581 6.4253137 3.5468642 0 6.4253137-2.8756052 6.4253137-6.4253137 0-3.5497086-2.8784495-6.4253138-6.4253137-6.4253138"/><path d="m51.2944258 15.8286281c-3.5497085 0-6.4281581 2.8756052-6.4281581 6.4253138 0 3.5497085 2.8784496 6.4253137 6.4281581 6.4253137 3.5468642 0 6.4253137-2.8756052 6.4253137-6.4253137 0-3.5497086-2.8784495-6.4253138-6.4253137-6.4253138"/><path d="m51.2944258 48.3619342c-3.5497085 0-6.4281581 2.8756052-6.4281581 6.4253137 0 3.5497086 2.8784496 6.4253138 6.4281581 6.4253138 3.5468642 0 6.4253137-2.8756052 6.4253137-6.4253138 0-3.5497085-2.8784495-6.4253137-6.4253137-6.4253137"/><path d="m35.0590602 32.9343549c-3.1059949 0-5.6232161 2.5200655-5.6232161 5.6260604 0 3.105995 2.5172212 5.6232162 5.6232161 5.6232162 3.105995 0 5.6260605-2.5172212 5.6260605-5.6232162 0-3.1059949-2.5200655-5.6260604-5.6260605-5.6260604"/><path d="m35.0590602 16.6278814c-3.1059949 0-5.6232161 2.5200655-5.6232161 5.6260605 0 3.1059949 2.5172212 5.6260604 5.6232161 5.6260604 3.105995 0 5.6260605-2.5200655 5.6260605-5.6260604 0-3.105995-2.5200655-5.6260605-5.6260605-5.6260605"/><path d="m35.0590602 49.2408284c-3.1059949 0-5.6232161 2.5200655-5.6232161 5.6232161 0 3.1088393 2.5172212 5.6260605 5.6232161 5.6260605 3.105995 0 5.6260605-2.5172212 5.6260605-5.6260605 0-3.1031506-2.5200655-5.6232161-5.6260605-5.6232161"/><path d="m35.0590602 65.5473019c-3.1059949 0-5.6232161 2.5172212-5.6232161 5.6232161 0 3.1088393 2.5172212 5.6260605 5.6232161 5.6260605 3.105995 0 5.6260605-2.5172212 5.6260605-5.6260605 0-3.1059949-2.5200655-5.6232161-5.6260605-5.6232161"/><path d="m35.0590602.32425222c-3.1059949 0-5.6232161 2.51722118-5.6232161 5.62321614 0 3.10599495 2.5172212 5.62606044 5.6232161 5.62606044 3.105995 0 5.6260605-2.52006549 5.6260605-5.62606044 0-3.10599496-2.5200655-5.62321614-5.6260605-5.62321614"/><path d="m18.826539 33.7336082c-2.6651257 0-4.8239629 2.1588371-4.8239629 4.8239628s2.1588372 4.8239629 4.8239629 4.8239629 4.8239629-2.1588372 4.8239629-4.8239629-2.1588372-4.8239628-4.8239629-4.8239628"/><path d="m18.826539 49.9632851c-2.6651257 0-4.8239629 2.1588371-4.8239629 4.8239628 0 2.6651258 2.1588372 4.8239629 4.8239629 4.8239629s4.8239629-2.1588371 4.8239629-4.8239629c0-2.6651257-2.1588372-4.8239628-4.8239629-4.8239628"/><path d="m18.826539 17.5010869c-2.6651257 0-4.8239629 2.1616815-4.8239629 4.8239629 0 2.6651257 2.1588372 4.8239628 4.8239629 4.8239628s4.8239629-2.1588371 4.8239629-4.8239628c0-2.6622814-2.1588372-4.8239629-4.8239629-4.8239629"/><path d="m4.02470958 34.5300171c-2.22425646 0-4.02470958 1.8004532-4.02470958 4.0247096 0 2.2214122 1.80045312 4.0218653 4.02470958 4.0218653 2.21856782 0 4.02186525-1.8004531 4.02186525-4.0218653 0-2.2242564-1.80329743-4.0247096-4.02186525-4.0247096"/><path d="m136.683688 11.0928391c-2.66797 0-4.829651 2.1616815-4.829651 4.8268072s2.161681 4.8268072 4.829651 4.8268072c2.665126 0 4.826807-2.1616815 4.826807-4.8268072s-2.161681-4.8268072-4.826807-4.8268072"/><path d="m238.945443 11.0928391c-2.665126 0-4.826807 2.1616815-4.826807 4.8268072s2.161681 4.8268072 4.826807 4.8268072 4.829652-2.1616815 4.829652-4.8268072-2.164526-4.8268072-4.829652-4.8268072"/><path d="m132.835326 71.2131828h7.696724v-43.1113237h-7.696724z"/><path d="m235.097081 71.2131828h7.69388v-43.1113237h-7.69388z"/><path d="m277.03939 35.7957385v-7.6938794h-11.323228v-16.6847678h-7.696724v16.6847678h-6.194924v7.6938794h6.194924v23.0617281c0 6.8092966 5.540731 12.3500276 12.352872 12.3500276h6.66708v-7.6938795h-6.061241c-3.097462 0-5.261987-2.2299451-5.261987-5.4184252v-22.299451z"/><path d="m175.542757 35.7957385v-7.6938794h-11.326073v-16.6847678h-7.69388v16.6847678h-6.197768v7.6938794h6.197768v23.0617281c0 6.8092966 5.540731 12.3500276 12.352872 12.3500276h6.667081v-7.6938795h-6.064086c-3.097462 0-5.261987-2.2299451-5.261987-5.4184252v-22.299451z"/><path d="m103.137805 19.2133662v8.8884929h-6.1977684v7.6938794h6.1977684v35.4146h7.693879v-35.4146h12.392693v-7.6938794h-12.392693v-8.8856486c0-3.2453665 2.264077-5.6914797 5.261988-5.6914797h7.130705v-7.69672379h-6.701213c-7.381004 0-13.385359 6.00435469-13.385359 13.38535919"/><path d="m206.318275 64.0654124c-7.71379 0-13.968445-6.453757-13.974133-14.4178466.005688-7.9640896 6.260343-14.4178465 13.974133-14.4178465 7.713789 0 13.971288 6.4537569 13.974133 14.4178465-.002845 7.9640896-6.260344 14.4178466-13.974133 14.4178466zm.736678-36.7002316c-6.977112-.0028443-11.849428 3.2083904-14.75632 6.8633387v-28.32940455h-7.861695v65.31122355h7.861695v-6.1437263c2.906892 3.6521039 7.779208 6.8633387 14.75632 6.8604962 12.170835-.0056905 21.101993-9.5512208 21.101993-22.2795426 0 0 0 0 0-.0028443 0-12.7254775-8.931158-22.2738521-21.101993-22.2795407z"/><path d="m286.835221 67.3591323h.961379c.543265 0 .830541-.2446113.830541-.671259s-.287276-.6741033-.830541-.6741033h-.961379zm2.20719 2.4347359-1.237278-1.9312917h-.969912v1.9312917h-.526199v-4.2806981h1.504644c.813475 0 1.356739.4693124 1.356739 1.1747032 0 .5233545-.295809.9272476-.81063 1.0865294l1.282787 2.0194655zm2.008088-2.050753c0-1.9000043-1.407937-3.3193188-3.299408-3.3193188-1.888627 0-3.288031 1.4193145-3.288031 3.3193188 0 1.9028485 1.399404 3.3221631 3.288031 3.3221631 1.891471 0 3.299408-1.4193146 3.299408-3.3221631zm-7.122171 0c0-2.1986576 1.624105-3.822763 3.822763-3.822763s3.83414 1.6241054 3.83414 3.822763c0 2.2015019-1.635482 3.822763-3.83414 3.822763s-3.822763-1.6212611-3.822763-3.822763z"/></g></svg>