<svg width="46" height="45" viewBox="0 0 46 45" fill="none" xmlns="http://www.w3.org/2000/svg">
<path d="M45.4275 22.5C45.4275 10.0723 35.3644 0 22.9481 0C10.5318 0 0.46875 10.0723 0.46875 22.5C0.46875 34.9277 10.5318 45 22.9481 45C23.0798 45 23.2115 45 23.3433 44.9912V27.4834H18.5137V21.8496H23.3433V17.7012C23.3433 12.8936 26.2761 10.2744 30.5612 10.2744C32.616 10.2744 34.381 10.4238 34.8903 10.4941V15.5215H31.9399C29.6129 15.5215 29.1563 16.6289 29.1563 18.2549V21.8408H34.7322L34.0034 27.4746H29.1563V44.1299C38.5519 41.4316 45.4275 32.7744 45.4275 22.5Z" fill="#36469D"/>
</svg>
