<svg width="46" height="45" viewBox="0 0 46 45" fill="none" xmlns="http://www.w3.org/2000/svg">
<path fill-rule="evenodd" clip-rule="evenodd" d="M45.8962 22.5C45.8962 34.9264 35.8319 45 23.4169 45C11.0019 45 0.9375 34.9264 0.9375 22.5C0.9375 10.0736 11.0019 0 23.4169 0C35.8319 0 45.8962 10.0736 45.8962 22.5ZM19.7994 8.90972C18.2984 8.91083 17.0836 10.1276 17.0847 11.627C17.0836 13.1264 18.2995 14.3432 19.8005 14.3443H22.5162V11.6281C22.5174 10.1287 21.3015 8.91194 19.7994 8.90972ZM19.7994 16.1572H12.5595C11.0585 16.1584 9.84264 17.3751 9.84375 18.8745C9.84153 20.3739 11.0574 21.5907 12.5584 21.5929H19.7994C21.3004 21.5918 22.5162 20.375 22.5151 18.8756C22.5162 17.3751 21.3004 16.1584 19.7994 16.1572ZM34.2804 16.1572C35.7814 16.1584 36.9972 17.3751 36.9961 18.8745C36.9972 20.375 35.7814 21.5918 34.2804 21.5929H31.5646V18.8745C31.5635 17.3751 32.7794 16.1584 34.2804 16.1572ZM29.7552 11.627V18.8745C29.7563 20.375 28.5404 21.5918 27.0394 21.5929C25.5384 21.5907 24.3225 20.3739 24.3247 18.8745V11.627C24.3236 10.1276 25.5395 8.91083 27.0405 8.90972C28.5415 8.91194 29.7563 10.1287 29.7552 11.627ZM27.04 36.0856C28.541 36.0845 29.7569 34.8677 29.7558 33.3684C29.7569 31.869 28.541 30.6522 27.04 30.6511H24.3242V33.3684C24.3231 34.8666 25.539 36.0834 27.04 36.0856ZM27.04 28.837H34.2809C35.7819 28.8359 36.9978 27.6191 36.9967 26.1197C36.9989 24.6203 35.783 23.4036 34.2821 23.4013H27.0411C25.5401 23.4025 24.3242 24.6192 24.3253 26.1186C24.3242 27.6191 25.539 28.8359 27.04 28.837ZM12.5595 28.8411C11.0585 28.84 9.84264 27.6232 9.84375 26.1238C9.84264 24.6244 11.0585 23.4076 12.5595 23.4065H15.2753V26.1238C15.2764 27.6232 14.0605 28.84 12.5595 28.8411ZM17.0847 33.3713V26.1238C17.0836 24.6244 18.2984 23.4076 19.8005 23.4076C21.3015 23.4099 22.5174 24.6266 22.5151 26.126V33.3724C22.5162 34.8718 21.3004 36.0886 19.7994 36.0897C18.2984 36.0875 17.0825 34.8707 17.0847 33.3713Z" fill="#36469D"/>
</svg>
