<svg width="45" height="45" viewBox="0 0 45 45" fill="none" xmlns="http://www.w3.org/2000/svg">
<path d="M22.4794 0C10.0662 0 0 10.0755 0 22.5C0 34.9245 10.0662 45 22.4794 45C34.8925 45 44.9587 34.9245 44.9587 22.5C44.9587 10.0755 34.8925 0 22.4794 0ZM32.7432 17.5431C32.7531 17.7645 32.7579 17.987 32.7579 18.2105C32.7579 25.0348 27.5682 32.9041 18.0775 32.9044H18.0779H18.0775C15.1637 32.9044 12.4522 32.0495 10.1688 30.5846C10.5725 30.6323 10.9835 30.656 11.3995 30.656C13.817 30.656 16.0418 29.8306 17.8079 28.4453C15.5492 28.4034 13.6448 26.9103 12.9876 24.8583C13.3022 24.9187 13.6256 24.9517 13.9573 24.9517C14.4283 24.9517 14.8845 24.8882 15.318 24.7697C12.9571 24.2966 11.1786 22.2082 11.1786 19.7074C11.1786 19.6841 11.1786 19.6631 11.1793 19.6415C11.8746 20.0284 12.6697 20.2612 13.5162 20.2873C12.1308 19.362 11.2201 17.7803 11.2201 15.9885C11.2201 15.0423 11.4757 14.1559 11.9188 13.3927C14.4633 16.5176 18.2659 18.5727 22.5541 18.7887C22.4656 18.4103 22.42 18.0162 22.42 17.6111C22.42 14.7601 24.7309 12.4472 27.5802 12.4472C29.0644 12.4472 30.4049 13.0751 31.3465 14.079C32.5219 13.8469 33.6257 13.4171 34.6229 12.8255C34.237 14.0309 33.4193 15.0423 32.3539 15.682C33.3976 15.557 34.3924 15.2799 35.3168 14.8686C34.6263 15.9044 33.7506 16.8142 32.7432 17.5431Z" fill="#36469D"/>
</svg>
