<svg width="45" height="44" viewBox="0 0 45 44" fill="none" xmlns="http://www.w3.org/2000/svg">
<path d="M22.2044 0C10.1607 0 0.40625 9.91187 0.40625 22.15C0.40625 32.5595 7.43546 41.1989 16.9191 43.6345C16.8096 43.3574 16.7558 42.969 16.7558 42.5826V38.8162H14.0306C12.5594 38.8162 11.1959 38.1526 10.5967 36.9329C9.88799 35.6039 9.77853 33.5548 7.98088 32.2805C7.43546 31.8375 7.87143 31.3945 8.47064 31.4492C9.61528 31.781 10.541 32.5576 11.4129 33.7188C12.2849 34.8819 12.667 35.1591 14.3014 35.1591C15.0639 35.1591 16.2623 35.1044 17.3532 34.9366C17.9524 33.3852 18.9876 32.0015 20.2417 31.338C12.9397 30.452 9.45202 26.7967 9.45202 21.8125C9.45202 19.6522 10.3778 17.6031 11.9045 15.8311C11.4148 14.1138 10.7599 10.5698 12.1235 9.18611C15.3941 9.18611 17.355 11.3464 17.8448 11.8988C19.4792 11.3446 21.2787 11.0128 23.1301 11.0128C25.0372 11.0128 26.7811 11.3446 28.4155 11.8988C28.9053 11.3446 30.868 9.18611 34.1368 9.18611C35.4447 10.5151 34.8455 14.1138 34.3001 15.8311C35.8269 17.5484 36.6988 19.6522 36.6988 21.8125C36.6988 26.7967 33.2649 30.452 26.0186 31.2267C28.0352 32.2786 29.4525 35.2684 29.4525 37.4834V42.5279C29.4525 42.6938 29.3987 42.8597 29.3987 43.0256C37.8991 40.0358 44.0026 31.8413 44.0026 22.15C44.0026 9.91187 34.2481 0 22.2044 0Z" fill="#36469D"/>
</svg>
