<svg width="28" height="28" viewBox="0 0 28 28" fill="none" xmlns="http://www.w3.org/2000/svg">
<path d="M14 0C6.26485 0 0 6.36039 0 14.2135C0 20.8932 4.51455 26.4371 10.6054 28C10.5351 27.8222 10.5006 27.573 10.5006 27.325V24.9081H8.7503C7.80545 24.9081 6.9297 24.4823 6.54485 23.6997C6.0897 22.8468 6.0194 21.5319 4.86485 20.7142C4.51455 20.4299 4.79455 20.1457 5.1794 20.1808C5.91455 20.3937 6.50911 20.892 7.06911 21.6372C7.62911 22.3835 7.87455 22.5614 8.92426 22.5614C9.41396 22.5614 10.1837 22.5263 10.8843 22.4186C11.2691 21.4231 11.934 20.5352 12.7394 20.1094C8.0497 19.5408 5.8097 17.1953 5.8097 13.997C5.8097 12.6107 6.40426 11.2958 7.38485 10.1587C7.0703 9.05672 6.6497 6.78256 7.52545 5.89467C9.62604 5.89467 10.8854 7.28094 11.2 7.63537C12.2497 7.27973 13.4054 7.06683 14.5946 7.06683C15.8194 7.06683 16.9394 7.27973 17.9891 7.63537C18.3037 7.27973 19.5643 5.89467 21.6637 5.89467C22.5037 6.74748 22.1188 9.05672 21.7685 10.1587C22.7491 11.2607 23.3091 12.6107 23.3091 13.997C23.3091 17.1953 21.1037 19.5408 16.4497 20.038C17.7449 20.713 18.6551 22.6315 18.6551 24.0529V27.2899C18.6551 27.3964 18.6206 27.5028 18.6206 27.6093C24.08 25.6908 28 20.4324 28 14.2135C28 6.36039 21.7351 0 14 0Z" fill="#36469D"/>
</svg>
