<?xml version="1.0" encoding="UTF-8" standalone="no"?>
<svg
   xmlns:dc="http://purl.org/dc/elements/1.1/"
   xmlns:cc="http://creativecommons.org/ns#"
   xmlns:rdf="http://www.w3.org/1999/02/22-rdf-syntax-ns#"
   xmlns:svg="http://www.w3.org/2000/svg"
   xmlns="http://www.w3.org/2000/svg"
   version="1.0"
   x="0px"
   y="0px"
   viewBox="0 0 32 32"
   enable-background="new 0 0 32 32"
   xml:space="preserve"
   id="svg839"
   width="32"
   height="32"><metadata
     id="metadata845"><rdf:RDF><cc:Work
         rdf:about=""><dc:format>image/svg+xml</dc:format><dc:type
           rdf:resource="http://purl.org/dc/dcmitype/StillImage" /><dc:title></dc:title></cc:Work></rdf:RDF></metadata><defs
     id="defs843" /><path
     d="M 32,16 C 32,7.165 24.836,0 16,0 7.164,0 0,7.164 0,16 c 0,8.836 7.164,16 16,16 8.836,0 16,-7.165 16,-16 z m -17.465,7.456 c -0.746,-0.746 -0.746,-1.953 0,-2.699 l 2.793,-2.758 H 9.938 C 8.867,17.999 8,17.132 8,16.062 V 15.937 C 8,14.867 8.867,14 9.938,14 h 7.363 l -2.766,-2.734 c -0.746,-0.746 -0.746,-1.953 0,-2.699 0.754,-0.742 1.973,-0.746 2.727,0 l 6.156,6.098 c 0.746,0.742 0.746,1.953 0,2.698 l -6.156,6.094 c -0.754,0.745 -1.973,0.745 -2.727,-0.001 z"
     id="path833" /></svg>
