<svg width="706" height="115" viewBox="0 0 706 115" fill="none" xmlns="http://www.w3.org/2000/svg">
<path d="M198 35.5V114" stroke="#EF4823" stroke-width="2"/>
<circle cx="198" cy="29" r="28" stroke="#EF4823" stroke-width="2"/>
<path d="M266 53.5V114.5" stroke="#EF4823" stroke-width="2"/>
<path d="M444.465 80.0307C443.592 80.0307 442.742 80.1175 441.905 80.245L438.816 65.7716C438.808 65.7319 438.783 65.7027 438.77 65.6649C438.749 65.6045 438.727 65.546 438.694 65.4912C438.662 65.4374 438.624 65.3921 438.582 65.3468C438.543 65.3034 438.505 65.2637 438.458 65.2278C438.403 65.1863 438.344 65.1561 438.282 65.1268C438.248 65.1117 438.224 65.0853 438.188 65.074L431.627 62.9056C431.131 62.7404 430.593 63.0085 430.428 63.5022C430.263 63.9959 430.531 64.5293 431.029 64.6935L437.074 66.691L438.133 71.6574H405.888L405.217 68.2722C405.198 68.1741 405.152 68.09 405.107 68.007H411.419C411.943 68.007 412.367 67.585 412.367 67.0649C412.367 66.5447 411.943 66.1228 411.419 66.1228H398.72C398.196 66.1228 397.772 66.5447 397.772 67.0649C397.772 67.585 398.196 68.007 398.72 68.007H403.466C403.362 68.1939 403.311 68.411 403.356 68.6366L404.114 72.457L399.379 81.4958C397.285 80.565 394.974 80.0316 392.533 80.0316C383.235 80.0316 375.67 87.5487 375.67 96.7886C375.67 106.029 383.235 113.546 392.533 113.546C399.531 113.546 405.508 109.272 408.05 103.224L408.446 103.358C408.452 103.36 408.457 103.359 408.464 103.361C409.049 103.624 409.693 103.779 410.376 103.779C412.945 103.779 415.035 101.703 415.035 99.1505C415.035 98.4557 414.87 97.8034 414.592 97.2115L439.64 78.7148L440.05 80.633C432.889 82.5691 427.603 89.0676 427.603 96.7867C427.603 106.028 435.167 113.544 444.466 113.544C453.765 113.544 461.33 106.027 461.33 96.7867C461.329 87.5468 453.764 80.0307 444.465 80.0307ZM404.702 75.4174L407.379 88.9119C405.916 86.1931 403.728 83.9256 401.064 82.3605L404.702 75.4174ZM411.016 97.5032L410.807 96.4478C411.201 96.5101 411.569 96.6479 411.89 96.8575L411.016 97.5032ZM405.949 100.521L396.429 97.2983L406.462 96.6574C405.996 97.3786 405.717 98.231 405.717 99.1505C405.717 99.631 405.812 100.085 405.949 100.521ZM394.152 95.5557L400.188 84.0333C403.985 86.2951 406.691 90.174 407.332 94.7127L394.152 95.5557ZM392.534 111.659C384.282 111.659 377.567 104.987 377.567 96.7867C377.567 88.5862 384.281 81.914 392.534 81.914C394.659 81.914 396.675 82.3652 398.506 83.1619L391.854 95.8606C391.51 95.9078 391.203 96.1334 391.084 96.4827C390.916 96.9746 391.18 97.5107 391.676 97.6778L406.258 102.615C403.972 107.921 398.7 111.659 392.534 111.659ZM413.138 99.1505C413.138 100.664 411.899 101.895 410.376 101.895C408.853 101.895 407.614 100.664 407.614 99.1505C407.614 98.1583 408.15 97.2965 408.947 96.8141L409.446 99.3327C409.448 99.3402 409.453 99.3459 409.454 99.3525C409.462 99.3912 409.483 99.4252 409.497 99.462C409.524 99.5385 409.554 99.6121 409.598 99.6763C409.606 99.6876 409.607 99.7008 409.615 99.7122C409.63 99.731 409.652 99.7386 409.669 99.7556C409.737 99.8349 409.816 99.8991 409.906 99.9519C409.938 99.9708 409.967 99.9906 410 100.005C410.118 100.057 410.243 100.092 410.376 100.092H410.377C410.377 100.092 410.377 100.092 410.378 100.092C410.379 100.092 410.38 100.092 410.381 100.092C410.44 100.092 410.5 100.086 410.561 100.075C410.577 100.072 410.588 100.06 410.604 100.057C410.687 100.037 410.764 100.002 410.841 99.9595C410.867 99.9444 410.898 99.9349 410.923 99.9179C410.929 99.9132 410.937 99.9123 410.943 99.9076L413.014 98.3783C413.087 98.6237 413.138 98.8795 413.138 99.1505ZM413.454 95.703C412.643 94.9865 411.59 94.5381 410.425 94.5258L406.262 73.5407H438.535L439.207 76.6861L413.454 95.703ZM444.465 111.659C436.212 111.659 429.498 104.987 429.498 96.7867C429.498 89.9729 434.14 84.2287 440.442 82.4757L443.537 96.9812C443.631 97.4248 444.026 97.7288 444.464 97.7288C444.529 97.7288 444.595 97.7222 444.662 97.709C445.175 97.6004 445.502 97.101 445.393 96.5922L442.298 82.0896C443.008 81.9867 443.727 81.9159 444.465 81.9159C452.718 81.9159 459.432 88.5871 459.432 96.7886C459.432 104.99 452.718 111.659 444.465 111.659Z" fill="#EF4823"/>
<circle cx="266" cy="47" r="28" stroke="#EF4823" stroke-width="2"/>
<path d="M1 114H705" stroke="#EF4823" stroke-width="2" stroke-linecap="round"/>
</svg>
