<svg width="266" height="117" viewBox="0 0 266 117" fill="none" xmlns="http://www.w3.org/2000/svg">
<path fill-rule="evenodd" clip-rule="evenodd" d="M82.8242 29.0831L81.4785 28.0532C81.7165 27.7596 100.588 2.31055 100.588 2.31055L101.95 3.33384C101.759 3.59027 82.8996 28.9814 82.8242 29.0831Z" fill="white"/>
<path fill-rule="evenodd" clip-rule="evenodd" d="M80.1447 27.1604L78.6973 26.2642L84.5726 16.667L86.0199 17.5635L80.1447 27.1604Z" fill="white"/>
<path fill-rule="evenodd" clip-rule="evenodd" d="M77.3089 25.4891L75.7871 24.7273L82.1855 11.8066L83.707 12.5687L77.3089 25.4891Z" fill="white"/>
<path fill-rule="evenodd" clip-rule="evenodd" d="M74.3334 24.0732L72.75 23.4516L78.6537 8.24805L80.2368 8.86978L74.3334 24.0732Z" fill="white"/>
<path fill-rule="evenodd" clip-rule="evenodd" d="M71.2417 22.9358L69.6094 22.4594L75.9016 0.664062L77.5339 1.1404L71.2417 22.9358Z" fill="white"/>
<path fill-rule="evenodd" clip-rule="evenodd" d="M68.0627 22.0828L66.3945 21.7552L69.3921 6.31348L71.0602 6.64107L68.0627 22.0828Z" fill="white"/>
<path fill-rule="evenodd" clip-rule="evenodd" d="M64.8217 21.5158L63.1309 21.3396L64.6064 6.98633L66.2969 7.1625L64.8217 21.5158Z" fill="white"/>
<path fill-rule="evenodd" clip-rule="evenodd" d="M61.5414 21.2437L59.8418 21.2208L59.9832 10.5195L61.6828 10.5423L61.5414 21.2437Z" fill="white"/>
<path fill-rule="evenodd" clip-rule="evenodd" d="M56.5566 21.4065L55.3281 5.28498L57.0227 5.1543L58.2513 21.2757L56.5566 21.4065Z" fill="white"/>
<path fill-rule="evenodd" clip-rule="evenodd" d="M53.3003 21.8762L51.2461 9.56332L52.9222 9.28027L54.9765 21.5934L53.3003 21.8762Z" fill="white"/>
<path fill-rule="evenodd" clip-rule="evenodd" d="M50.0982 22.6393L47.3125 11.934L48.9566 11.501L51.7425 22.2065L50.0982 22.6393Z" fill="white"/>
<path fill-rule="evenodd" clip-rule="evenodd" d="M46.9796 23.6945L41.8984 9.50707L43.4976 8.92773L48.5786 23.115L46.9796 23.6945Z" fill="white"/>
<path fill-rule="evenodd" clip-rule="evenodd" d="M43.9678 25.0236L40.8555 18.2976L42.3964 17.5762L45.5086 24.3024L43.9678 25.0236Z" fill="white"/>
<path fill-rule="evenodd" clip-rule="evenodd" d="M41.0851 26.6198L36.3594 18.4187L37.83 17.5615L42.5556 25.763L41.0851 26.6198Z" fill="white"/>
<path fill-rule="evenodd" clip-rule="evenodd" d="M38.3561 28.4745L36.6875 26.0987L38.0759 25.1123L39.7444 27.488L38.3561 28.4745Z" fill="white"/>
<path fill-rule="evenodd" clip-rule="evenodd" d="M35.8017 30.5554L26.3926 19.4286L27.6873 18.3213L37.0964 29.4482L35.8017 30.5554Z" fill="white"/>
<path fill-rule="evenodd" clip-rule="evenodd" d="M33.445 32.8676L25.0039 24.5322L26.1948 23.3125L34.6358 31.648L33.445 32.8676Z" fill="white"/>
<path fill-rule="evenodd" clip-rule="evenodd" d="M31.3039 35.3761L18.457 24.7881L19.5342 23.4658L32.3811 34.0538L31.3039 35.3761Z" fill="white"/>
<path fill-rule="evenodd" clip-rule="evenodd" d="M29.395 38.0756L17.5469 29.9807L18.5021 28.5664L30.35 36.6616L29.395 38.0756Z" fill="white"/>
<path fill-rule="evenodd" clip-rule="evenodd" d="M27.7346 40.9326L5.4082 28.4613L6.23347 26.9668L28.5599 39.4382L27.7346 40.9326Z" fill="white"/>
<path fill-rule="evenodd" clip-rule="evenodd" d="M26.3329 43.9278L18.1074 40.2611L18.7962 38.6982L27.0215 42.3649L26.3329 43.9278Z" fill="white"/>
<path fill-rule="evenodd" clip-rule="evenodd" d="M25.2064 47.0363L3.88867 39.7533L4.43517 38.1348L25.7533 45.4176L25.2064 47.0363Z" fill="white"/>
<path fill-rule="evenodd" clip-rule="evenodd" d="M0 44.3L24.3616 50.2354L24.7614 48.5741L0.400064 42.6387L0 44.3Z" fill="white"/>
<path fill-rule="evenodd" clip-rule="evenodd" d="M23.805 53.4941L13.8828 52.0069L14.1334 50.3164L24.0553 51.8036L23.805 53.4941Z" fill="white"/>
<path fill-rule="evenodd" clip-rule="evenodd" d="M23.5407 56.7963L5.36523 55.7321L5.46405 54.0254L23.6396 55.0898L23.5407 56.7963Z" fill="white"/>
<path fill-rule="evenodd" clip-rule="evenodd" d="M9.70008 60.548L9.64648 58.8393L23.5172 58.3984L23.5708 60.107L9.70008 60.548Z" fill="white"/>
<path fill-rule="evenodd" clip-rule="evenodd" d="M6.28192 65.5609L6.07617 63.8641L23.6917 61.7031L23.8976 63.4002L6.28192 65.5609Z" fill="white"/>
<path fill-rule="evenodd" clip-rule="evenodd" d="M14.0126 68.914L13.6562 67.2424L24.1597 64.9785L24.5157 66.6498L14.0126 68.914Z" fill="white"/>
<path fill-rule="evenodd" clip-rule="evenodd" d="M21.4784 71.0587L20.9746 69.4259L24.9163 68.1963L25.4199 69.8291L21.4784 71.0587Z" fill="white"/>
<path fill-rule="evenodd" clip-rule="evenodd" d="M14.6571 77.8626L14.0098 76.282L25.959 71.333L26.6061 72.9138L14.6571 77.8626Z" fill="white"/>
<path fill-rule="evenodd" clip-rule="evenodd" d="M14.8191 82.8211L14.0332 81.3053L27.2745 74.3652L28.0602 75.8808L14.8191 82.8211Z" fill="white"/>
<path fill-rule="evenodd" clip-rule="evenodd" d="M14.9113 88.2903L13.9941 86.8513L28.8566 77.2666L29.7741 78.7058L14.9113 88.2903Z" fill="white"/>
<path fill-rule="evenodd" clip-rule="evenodd" d="M19.015 91.2904L17.9727 89.9401L30.6908 80.0146L31.7327 81.3651L19.015 91.2904Z" fill="white"/>
<path fill-rule="evenodd" clip-rule="evenodd" d="M22.789 94.2592L21.6309 93.0083L32.7627 82.585L33.9209 83.8359L22.789 94.2592Z" fill="white"/>
<path fill-rule="evenodd" clip-rule="evenodd" d="M25.8413 97.8468L24.5762 96.7047L35.0566 84.959L36.3215 86.1009L25.8413 97.8468Z" fill="white"/>
<path fill-rule="evenodd" clip-rule="evenodd" d="M30.3692 99.6404L29.0078 98.6174L37.5511 87.1152L38.9125 88.1385L30.3692 99.6404Z" fill="white"/>
<path fill-rule="evenodd" clip-rule="evenodd" d="M37.8789 96.1415L36.4316 95.2456L40.2284 89.042L41.6757 89.9379L37.8789 96.1415Z" fill="white"/>
<path fill-rule="evenodd" clip-rule="evenodd" d="M36.127 108.566L34.6055 107.804L43.0665 90.7178L44.5879 91.4798L36.127 108.566Z" fill="white"/>
<path fill-rule="evenodd" clip-rule="evenodd" d="M42.4952 105.965L40.9121 105.343L46.0417 92.1318L47.6246 92.7536L42.4952 105.965Z" fill="white"/>
<path fill-rule="evenodd" clip-rule="evenodd" d="M48.2512 102.449L46.6191 101.972L49.1316 93.2695L50.7637 93.7463L48.2512 102.449Z" fill="white"/>
<path fill-rule="evenodd" clip-rule="evenodd" d="M51.498 107.223L49.8301 106.896L52.3096 94.1201L53.9777 94.4477L51.498 107.223Z" fill="white"/>
<path fill-rule="evenodd" clip-rule="evenodd" d="M55.8899 108.027L54.1992 107.851L55.5526 94.6836L57.2433 94.8596L55.8899 108.027Z" fill="white"/>
<path fill-rule="evenodd" clip-rule="evenodd" d="M60.4125 104.036L58.7129 104.013L58.8323 94.96L60.5323 94.9827L60.4125 104.036Z" fill="white"/>
<path fill-rule="evenodd" clip-rule="evenodd" d="M63.2059 109.143L62.123 94.9305L63.8176 94.7998L64.9009 109.013L63.2059 109.143Z" fill="white"/>
<path fill-rule="evenodd" clip-rule="evenodd" d="M68.2769 111.871L65.3965 94.6071L67.0727 94.3242L69.9531 111.588L68.2769 111.871Z" fill="white"/>
<path fill-rule="evenodd" clip-rule="evenodd" d="M74.6131 116.986L68.6289 93.9931L70.2731 93.5605L76.2571 116.554L74.6131 116.986Z" fill="white"/>
<path fill-rule="evenodd" clip-rule="evenodd" d="M75.359 103.034L71.7949 93.0852L73.3937 92.5059L76.958 102.455L75.359 103.034Z" fill="white"/>
<path fill-rule="evenodd" clip-rule="evenodd" d="M80.8826 104.906L74.8652 91.9011L76.4064 91.1797L82.4236 104.185L80.8826 104.906Z" fill="white"/>
<path fill-rule="evenodd" clip-rule="evenodd" d="M91.852 114.79L77.8184 90.44L79.2888 89.583L93.3224 113.933L91.852 114.79Z" fill="white"/>
<path fill-rule="evenodd" clip-rule="evenodd" d="M89.6972 101.629L80.6309 88.7226L82.0189 87.7363L91.0852 100.643L89.6972 101.629Z" fill="white"/>
<path fill-rule="evenodd" clip-rule="evenodd" d="M84.1686 87.816L83.2773 86.7499L84.5721 85.6426L85.4632 86.7087L84.1686 87.816Z" fill="white"/>
<path fill-rule="evenodd" clip-rule="evenodd" d="M96.3813 95.0701L85.7383 84.5605L86.9289 83.3408L97.5722 93.8508L96.3813 95.0701Z" fill="white"/>
<path fill-rule="evenodd" clip-rule="evenodd" d="M96.966 89.5398L87.9922 82.1447L89.0694 80.8223L98.0431 88.2177L96.966 89.5398Z" fill="white"/>
<path fill-rule="evenodd" clip-rule="evenodd" d="M101.629 87.4745L90.0234 79.5459L90.9784 78.1318L102.584 86.0604L101.629 87.4745Z" fill="white"/>
<path fill-rule="evenodd" clip-rule="evenodd" d="M100.983 81.8889L91.8164 76.7692L92.6418 75.2744L101.808 80.3945L100.983 81.8889Z" fill="white"/>
<path fill-rule="evenodd" clip-rule="evenodd" d="M111.435 81.9011L93.3516 73.8411L94.0401 72.2783L112.123 80.3382L111.435 81.9011Z" fill="white"/>
<path fill-rule="evenodd" clip-rule="evenodd" d="M99.0481 72.3003L94.6211 70.7886L95.1672 69.1699L99.5947 70.6817L99.0481 72.3003Z" fill="white"/>
<path fill-rule="evenodd" clip-rule="evenodd" d="M112.816 71.8269C112.816 71.8269 96.1034 67.7502 95.6113 67.6263L96.0141 65.9746C96.1081 65.9978 113.216 70.1654 113.216 70.1654L112.816 71.8269Z" fill="white"/>
<path fill-rule="evenodd" clip-rule="evenodd" d="M110.191 66.4749L96.3203 64.3966L96.5708 62.7061L110.441 64.7842L110.191 66.4749Z" fill="white"/>
<path fill-rule="evenodd" clip-rule="evenodd" d="M108.691 61.8122L96.7363 61.112L96.8349 59.4053L108.789 60.1054L108.691 61.8122Z" fill="white"/>
<path fill-rule="evenodd" clip-rule="evenodd" d="M96.8584 57.813L96.8047 56.1046L105.706 55.8213L105.76 57.5301L96.8584 57.813Z" fill="white"/>
<path fill-rule="evenodd" clip-rule="evenodd" d="M96.6841 54.5032L96.4785 52.8063L104.148 51.8652L104.354 53.5619L96.6841 54.5032Z" fill="white"/>
<path fill-rule="evenodd" clip-rule="evenodd" d="M96.2156 51.2284L95.8594 49.557L106.865 47.1836L107.222 48.8552L96.2156 51.2284Z" fill="white"/>
<path fill-rule="evenodd" clip-rule="evenodd" d="M95.459 48.0064L94.9551 46.3741L100.037 44.7871L100.541 46.4198L95.459 48.0064Z" fill="white"/>
<path fill-rule="evenodd" clip-rule="evenodd" d="M94.4166 44.8739L93.7695 43.2932L100.869 40.3525L101.516 41.933L94.4166 44.8739Z" fill="white"/>
<path fill-rule="evenodd" clip-rule="evenodd" d="M93.1001 41.8392L92.3145 40.3232L107.803 32.2051L108.588 33.7208L93.1001 41.8392Z" fill="white"/>
<path fill-rule="evenodd" clip-rule="evenodd" d="M91.5169 38.9384L90.5996 37.4997L109.395 25.3779L110.312 26.8167L91.5169 38.9384Z" fill="white"/>
<path fill-rule="evenodd" clip-rule="evenodd" d="M89.6827 36.1857L88.6406 34.8354L92.6579 31.7002L93.7 33.0508L89.6827 36.1857Z" fill="white"/>
<path fill-rule="evenodd" clip-rule="evenodd" d="M87.6143 33.6159L86.4688 32.3527C86.7411 32.1035 89.2935 29.708 89.2935 29.708L90.4514 30.9594C90.4514 30.9594 87.6741 33.5595 87.6143 33.6159Z" fill="white"/>
<path fill-rule="evenodd" clip-rule="evenodd" d="M85.3178 31.241L84.0527 30.0992L103.286 8.54199L104.551 9.68394L85.3178 31.241Z" fill="white"/>
<path fill-rule="evenodd" clip-rule="evenodd" d="M54.4361 63.2508C54.3397 63.6064 54.1792 63.8971 53.9221 64.1879C53.6651 64.4787 53.3439 64.7049 52.8941 64.8664C52.4443 65.028 51.8662 65.1249 51.1915 65.1249H47.5293V59.503H51.1594C51.834 59.503 52.3802 59.5676 52.7977 59.6969C53.2155 59.8261 53.5688 59.9877 53.8258 60.2139C54.0828 60.4401 54.2755 60.7309 54.4039 61.0539C54.5004 61.4093 54.5646 61.7647 54.5646 62.1847C54.5646 62.5402 54.5326 62.8956 54.4361 63.2508ZM47.5293 50.4563H50.5811C51.1594 50.4563 51.6735 50.521 52.0911 50.5856C52.5086 50.6502 52.8941 50.8118 53.1511 51.0379C53.4082 51.2641 53.6329 51.5549 53.7616 51.9103C53.89 52.2981 53.9543 52.718 53.9543 53.2673C53.9543 53.8166 53.8578 54.2688 53.6972 54.6242C53.5367 54.9797 53.2797 55.2705 52.9584 55.4643C52.6372 55.6582 52.2196 55.7875 51.7697 55.8844C51.3201 55.9813 50.806 56.0135 50.2277 56.0459H47.5293V50.4563ZM58.6123 59.1476C57.9056 58.34 56.8134 57.7583 55.3356 57.4029C56.0102 57.1445 56.5885 56.8537 57.0703 56.5305C57.5522 56.1751 57.9378 55.8197 58.259 55.3998C58.5481 54.9797 58.805 54.5596 58.9337 54.075C59.0942 53.6226 59.1584 53.138 59.1584 52.6211C59.1584 51.6841 58.9979 50.8764 58.6766 50.101C58.3554 49.3256 57.8413 48.6794 57.1668 48.1624C56.4922 47.6455 55.5926 47.2255 54.5004 46.9347C53.4082 46.6439 52.0909 46.5146 50.5489 46.5146H42.293V69.099H51.2557C52.605 69.099 53.7936 68.9374 54.8538 68.582C55.8817 68.2266 56.7812 67.742 57.4879 67.1281C58.2269 66.5142 58.7408 65.8033 59.1264 64.9633C59.5118 64.1556 59.7047 63.251 59.6725 62.2816C59.6725 60.9893 59.3191 59.9554 58.6123 59.1476Z" fill="white"/>
<path fill-rule="evenodd" clip-rule="evenodd" d="M76.9874 50.521V46.5146H62.5312V69.099H76.9874V65.0603H67.7676V59.6646H74.8351V55.7873H67.7676V50.521H76.9874Z" fill="white"/>
<path fill-rule="evenodd" clip-rule="evenodd" d="M132.929 36.0749C130.733 36.0749 129.466 37.5549 129.466 40.014C129.466 42.4958 130.756 43.953 132.929 43.953C135.102 43.953 136.371 42.4958 136.371 40.014C136.394 37.5549 135.102 36.0749 132.929 36.0749ZM132.929 46.321C129.104 46.321 126.545 43.5887 126.545 40.014C126.545 36.4392 129.104 33.707 132.929 33.707C136.733 33.707 139.29 36.462 139.29 40.014C139.29 43.566 136.755 46.321 132.929 46.321Z" fill="white"/>
<path fill-rule="evenodd" clip-rule="evenodd" d="M147.191 39.8974H148.662C150.134 39.8974 150.745 39.1459 150.745 37.8709C150.745 36.7553 150.089 35.981 148.662 35.981H147.191V39.8974ZM147.191 42.0604V46.1815H144.338V33.8408H148.662C152.104 33.8408 153.597 35.5941 153.597 37.8709C153.597 40.33 152.059 42.0604 148.662 42.0604H147.191Z" fill="white"/>
<path fill-rule="evenodd" clip-rule="evenodd" d="M166.706 33.8408V36.0494H161.68V38.9182H165.529V41.0357H161.68V43.9729H166.706V46.1815H158.805V33.8408H166.706Z" fill="white"/>
<path fill-rule="evenodd" clip-rule="evenodd" d="M175.105 34.2682L180.922 41.6681C180.877 41.19 180.854 40.7347 180.854 40.3476V33.8129H183.368V46.1537H181.896C181.466 46.1537 181.172 46.0399 180.9 45.6755L175.128 38.3212C175.15 38.7538 175.195 39.1636 175.195 39.5279V46.1309H172.682V33.79H174.177C174.651 33.8357 174.811 33.9039 175.105 34.2682Z" fill="white"/>
<path fill-rule="evenodd" clip-rule="evenodd" d="M130.031 61.7091H130.484C130.913 61.7091 131.208 61.5724 131.389 61.322L134.152 57.2918C134.446 56.8594 134.807 56.7227 135.374 56.7227H137.841L134.22 61.7091C133.947 62.0734 133.676 62.301 133.382 62.4605C133.811 62.6198 134.152 62.8703 134.446 63.3484L138.158 69.0635H135.623C134.966 69.0635 134.74 68.8813 134.513 68.5398L131.728 64.2365C131.525 63.9177 131.254 63.8039 130.71 63.8039H130.031V69.0635H127.201V56.7227H130.054V61.7091H130.031Z" fill="white"/>
<path fill-rule="evenodd" clip-rule="evenodd" d="M146.014 57.1568L151.831 64.5568C151.786 64.0786 151.763 63.6232 151.763 63.2361V56.7015H154.277V69.0421H152.805C152.375 69.0421 152.081 68.9283 151.809 68.5641L146.036 61.2097C146.059 61.6423 146.104 62.0522 146.104 62.4164V69.0195H143.592V56.6787H145.085C145.56 56.7242 145.697 56.7925 146.014 57.1568Z" fill="white"/>
<path fill-rule="evenodd" clip-rule="evenodd" d="M166.095 58.9519C163.899 58.9519 162.632 60.432 162.632 62.891C162.632 65.3728 163.922 66.8299 166.095 66.8299C168.268 66.8299 169.536 65.3728 169.536 62.891C169.536 60.432 168.268 58.9519 166.095 58.9519ZM166.095 69.198C162.269 69.198 159.711 66.4657 159.711 62.891C159.711 59.3163 162.269 56.584 166.095 56.584C169.899 56.584 172.456 59.339 172.456 62.891C172.456 66.443 169.899 69.198 166.095 69.198Z" fill="white"/>
<path fill-rule="evenodd" clip-rule="evenodd" d="M175.58 56.7227H177.981C178.478 56.7227 178.817 56.9732 178.93 57.3374L180.606 63.7811C180.719 64.1909 180.832 64.6691 180.9 65.1928C181.013 64.6691 181.15 64.191 181.286 63.7811L183.278 57.3374C183.369 57.0187 183.73 56.7227 184.206 56.7227H185.043C185.542 56.7227 185.858 56.9503 185.994 57.3374L187.964 63.7811C188.099 64.1681 188.235 64.6235 188.325 65.1244C188.417 64.6235 188.508 64.1681 188.621 63.7811L190.295 57.3374C190.386 56.9959 190.749 56.7227 191.224 56.7227H193.465L189.685 69.0635H187.103L184.794 61.4131C184.726 61.1854 184.636 60.8894 184.546 60.5707C184.478 60.8894 184.387 61.1626 184.297 61.4131L181.964 69.0635H179.384L175.58 56.7227Z" fill="white"/>
<path fill-rule="evenodd" clip-rule="evenodd" d="M201.411 66.7651H205.961V69.0419H198.559V56.7012H201.411V66.7651Z" fill="white"/>
<path fill-rule="evenodd" clip-rule="evenodd" d="M219.907 56.7227V58.9312H214.881V61.8002H218.73V63.9177H214.881V66.8549H219.907V69.0635H212.006V56.7227H219.907Z" fill="white"/>
<path fill-rule="evenodd" clip-rule="evenodd" d="M230.638 58.9312H228.736V66.8549H230.638C232.811 66.8549 234.079 65.3521 234.079 62.8931C234.102 60.4341 232.811 58.9312 230.638 58.9312ZM230.638 69.0635H225.885V56.7227H230.638C234.442 56.7227 237 59.3411 237 62.8931C237.022 66.4451 234.465 69.0635 230.638 69.0635Z" fill="white"/>
<path fill-rule="evenodd" clip-rule="evenodd" d="M249.766 66.6247V64.7578H248.544C248.182 64.7578 247.979 64.5528 247.979 64.2568V62.6858H252.348V67.8999C251.103 68.8334 249.653 69.2204 247.638 69.2204C244.062 69.2204 241.367 66.5337 241.367 62.9134C241.367 59.2249 243.903 56.6064 247.843 56.6064C249.903 56.6064 251.419 57.3123 252.415 58.2686L251.6 59.5209C251.442 59.7486 251.216 59.908 250.967 59.908C250.808 59.908 250.627 59.8397 250.446 59.7486C249.54 59.2021 248.907 58.9745 247.774 58.9745C245.646 58.9745 244.31 60.5454 244.31 62.9134C244.31 65.5318 245.828 67.0118 247.888 67.0118C248.634 66.9891 249.223 66.8525 249.766 66.6247Z" fill="white"/>
<path fill-rule="evenodd" clip-rule="evenodd" d="M265.999 56.7227V58.9312H260.973V61.8002H264.822V63.9177H260.973V66.8549H265.999V69.0635H258.098V56.7227H265.999Z" fill="white"/>
<path fill-rule="evenodd" clip-rule="evenodd" d="M129.285 86.4106V90.6229H131.888C132.364 90.6229 132.748 90.5774 133.089 90.4636C133.428 90.3497 133.699 90.213 133.903 90.0081C134.13 89.8033 134.288 89.5756 134.379 89.3251C134.469 89.0519 134.537 88.7559 134.537 88.437C134.537 87.7995 134.311 87.3214 133.88 86.9571C133.45 86.5928 132.771 86.4106 131.888 86.4106H129.285ZM129.285 85.2267H131.435C131.888 85.2267 132.296 85.1812 132.635 85.0672C132.974 84.9534 133.247 84.8168 133.473 84.6346C133.699 84.4526 133.857 84.2249 133.97 83.9744C134.084 83.7238 134.13 83.428 134.13 83.1319C134.13 82.4261 133.925 81.9024 133.496 81.5609C133.066 81.2194 132.409 81.0599 131.503 81.0599H129.285V85.2267ZM127.654 91.9435V79.8076H131.503C132.251 79.8076 132.884 79.876 133.428 80.0353C133.97 80.1947 134.401 80.3997 134.741 80.6728C135.08 80.9461 135.352 81.2648 135.511 81.6747C135.669 82.0618 135.759 82.5172 135.759 82.9954C135.759 83.2914 135.714 83.5873 135.624 83.8605C135.533 84.1337 135.398 84.3842 135.194 84.6346C135.012 84.8623 134.763 85.09 134.492 85.2722C134.198 85.4544 133.88 85.6137 133.496 85.7275C134.379 85.9097 135.034 86.2286 135.488 86.6839C135.94 87.1392 136.166 87.754 136.166 88.5054C136.166 89.0291 136.076 89.4844 135.895 89.9171C135.714 90.3497 135.443 90.714 135.08 91.01C134.718 91.306 134.266 91.5564 133.744 91.7159C133.224 91.8752 132.613 91.9663 131.956 91.9663H127.654V91.9435Z" fill="white"/>
<path fill-rule="evenodd" clip-rule="evenodd" d="M151.017 79.8076V81.151H145.221V85.1812H149.908V86.479H145.221V90.623H151.017V91.9663H143.592V79.8305H151.017V79.8076Z" fill="white"/>
<path fill-rule="evenodd" clip-rule="evenodd" d="M160.073 90.5547H165.302V91.9435H158.443V79.8076H160.073V90.5547Z" fill="white"/>
<path fill-rule="evenodd" clip-rule="evenodd" d="M177.504 90.7424C177.82 90.7424 178.138 90.7197 178.41 90.6969C178.681 90.6742 178.93 90.6286 179.18 90.5604C179.428 90.492 179.654 90.4237 179.858 90.3327C180.063 90.2416 180.289 90.1505 180.492 90.0367V87.3499H178.613C178.5 87.3499 178.432 87.3271 178.364 87.2588C178.297 87.1906 178.274 87.1222 178.274 87.0311V86.0976H181.986V90.7653C181.692 90.993 181.376 91.1751 181.036 91.3345C180.718 91.4938 180.357 91.6305 179.995 91.7443C179.632 91.8582 179.225 91.9265 178.794 91.9949C178.364 92.0403 177.912 92.0858 177.413 92.0858C176.53 92.0858 175.738 91.9265 175.014 91.6305C174.289 91.3345 173.655 90.9019 173.135 90.3554C172.613 89.809 172.206 89.1486 171.913 88.3973C171.617 87.6459 171.459 86.8035 171.459 85.8927C171.459 84.9591 171.595 84.1167 171.89 83.3653C172.184 82.614 172.591 81.9537 173.135 81.4071C173.677 80.8607 174.312 80.4509 175.082 80.1321C175.852 79.8362 176.689 79.6768 177.64 79.6768C178.116 79.6768 178.568 79.7222 178.976 79.7906C179.383 79.8588 179.768 79.9728 180.108 80.0866C180.47 80.2232 180.786 80.3826 181.082 80.5647C181.375 80.7469 181.647 80.9745 181.918 81.2022L181.466 81.9537C181.375 82.113 181.24 82.1814 181.104 82.1814C181.014 82.1814 180.922 82.1585 180.809 82.0903C180.673 82.0219 180.515 81.9081 180.334 81.7943C180.153 81.6804 179.948 81.5666 179.7 81.4755C179.451 81.3844 179.157 81.2933 178.817 81.2022C178.477 81.1111 178.07 81.0884 177.617 81.0884C176.939 81.0884 176.327 81.2022 175.784 81.43C175.24 81.6577 174.765 81.9764 174.38 82.3863C173.995 82.796 173.701 83.2971 173.497 83.889C173.293 84.481 173.18 85.1413 173.18 85.8699C173.18 86.6441 173.293 87.3272 173.497 87.9191C173.724 88.5111 174.018 89.0348 174.402 89.4446C174.788 89.8545 175.263 90.1733 175.807 90.4009C176.259 90.6286 176.871 90.7424 177.504 90.7424Z" fill="white"/>
<path fill-rule="evenodd" clip-rule="evenodd" d="M189.842 79.8076H191.472V91.9435H189.842V79.8076Z" fill="white"/>
<path fill-rule="evenodd" clip-rule="evenodd" d="M204.468 90.6229C204.966 90.6229 205.419 90.5319 205.804 90.3725C206.189 90.213 206.528 89.9626 206.8 89.6666C207.072 89.3706 207.276 89.0063 207.434 88.5737C207.592 88.1412 207.638 87.6857 207.638 87.1849V79.8076H209.268V87.1849C209.268 87.8906 209.154 88.5283 208.928 89.1429C208.702 89.735 208.385 90.2586 207.977 90.6912C207.57 91.1238 207.072 91.4655 206.461 91.7159C205.871 91.9663 205.193 92.0801 204.446 92.0801C203.698 92.0801 203.042 91.9663 202.431 91.7159C201.819 91.4655 201.321 91.1238 200.914 90.6912C200.506 90.2586 200.19 89.735 199.964 89.1429C199.736 88.5509 199.623 87.8906 199.623 87.1849V79.8076H201.254V87.1849C201.254 87.6857 201.321 88.1639 201.457 88.5737C201.593 88.9836 201.796 89.3706 202.092 89.6666C202.385 89.9626 202.702 90.213 203.088 90.3725C203.472 90.5319 203.947 90.6229 204.468 90.6229Z" fill="white"/>
<path fill-rule="evenodd" clip-rule="evenodd" d="M223.258 87.9817C223.326 88.1411 223.371 88.2777 223.439 88.437C223.484 88.2777 223.552 88.1184 223.62 87.9817C223.688 87.8451 223.757 87.6857 223.825 87.5491L227.899 80.0809C227.968 79.9443 228.058 79.876 228.126 79.8531C228.194 79.8305 228.307 79.8076 228.465 79.8076H229.665V91.9435H228.239V83.0181V82.631C228.239 82.4944 228.262 82.3578 228.262 82.2211L224.119 89.8033C223.983 90.0537 223.78 90.1903 223.53 90.1903H223.304C223.055 90.1903 222.851 90.0537 222.716 89.8033L218.481 82.1984C218.504 82.335 218.504 82.4944 218.526 82.631C218.526 82.7677 218.55 82.9043 218.55 83.0181V91.9435H217.123V79.8076H218.323C218.458 79.8076 218.573 79.8305 218.663 79.8531C218.731 79.876 218.821 79.9671 218.889 80.0809L223.055 87.5491C223.123 87.6857 223.191 87.8224 223.258 87.9817Z" fill="white"/>
</svg>
